<svg xmlns="http://www.w3.org/2000/svg" width="394.996" height="350.992" viewBox="0 0 394.996 350.992"><path d="M829.783,492.721a308.266,308.266,0,0,1-26.216,57.539c-.244.417-.49.827-.739,1.243l-27.184-8.6c.156-.393.328-.834.512-1.315C787.12,513.234,853.271,340.473,850.3,306.41,850.622,309.2,860.97,401.469,829.783,492.721Z" transform="translate(-490.325 -202.708)" fill="#e6e6e6"/><path d="M820.455,676.162c-.369.378-.748.752-1.13,1.119l-20.393-6.451c.276-.333.6-.727.966-1.171,6.04-7.376,24-29.459,41.529-52.694,18.842-24.969,37.2-51.266,39.774-62.071C880.684,557.35,864.593,632.147,820.455,676.162Z" transform="translate(-501.969 -326.951)" fill="#e6e6e6"/><path d="M688.272,160.56l-.022,0V116.849A17.845,17.845,0,0,0,670.405,99H533.547A17.845,17.845,0,0,0,515.7,116.849v22.41a1.446,1.446,0,0,0-1.415,1.444v11.1a1.446,1.446,0,0,0,1.415,1.444v11.628h-.073a1.447,1.447,0,0,0-1.448,1.448v21.465a1.447,1.447,0,0,0,1.448,1.447h.073v8.525h-.023a1.447,1.447,0,0,0-1.447,1.448v21.675a1.447,1.447,0,0,0,1.448,1.447h.022V431.84a17.845,17.845,0,0,0,17.845,17.845H670.405A17.845,17.845,0,0,0,688.25,431.84V203.068l.022,0a2.577,2.577,0,0,0,2.578-2.578V163.138a2.578,2.578,0,0,0-2.578-2.578Z" transform="translate(-359.593 -99.004)" fill="#3f3d56"/><path d="M689.77,130.979v305a13.7,13.7,0,0,1-13.7,13.7H552.237a13.7,13.7,0,0,1-13.7-13.7v-305a13.7,13.7,0,0,1,13.7-13.7h18.53v2.4a11.29,11.29,0,0,0,11.285,11.285h63a11.285,11.285,0,0,0,11.26-11.285V117.3h19.755a13.7,13.7,0,0,1,13.7,13.68Z" transform="translate(-371.768 -108.139)" fill="#fff"/><path d="M388.072,440.924a5.371,5.371,0,0,0-7.211,3.979L336.734,468.9l7.758,8.732,40.98-26.3a5.4,5.4,0,0,0,2.6-10.406Z" transform="translate(-270.868 -269.784)" fill="#ffb8b8"/><path d="M198.184,661.093l5.5-3.557-11.1-22.9-8.115,5.249Z" transform="translate(-92.234 -317.321)" fill="#ffb8b8"/><path d="M0,0H20.581V7.952H7.654A7.654,7.654,0,0,1,0,.3V0Z" transform="translate(125.357 338.461) rotate(147.104)" fill="#2f2e41"/><path d="M88.511,663.947h6.548l3.116-25.259H88.511Z" transform="translate(-44.256 -319.348)" fill="#ffb8b8"/><path d="M0,0H20.581V7.952H7.654A7.655,7.655,0,0,1,0,.3V0Z" transform="translate(63.433 350.68) rotate(180)" fill="#2f2e41"/><path d="M579.25,195.5h-13.5a1.25,1.25,0,1,1,0-2.5h13.5a1.25,1.25,0,0,1,0,2.5Z" transform="translate(-384.752 -146)" fill="#3f3d56"/><path d="M579.25,202.5h-13.5a1.25,1.25,0,1,1,0-2.5h13.5a1.25,1.25,0,0,1,0,2.5Z" transform="translate(-384.752 -149.5)" fill="#3f3d56"/><path d="M579.25,209.5h-13.5a1.25,1.25,0,1,1,0-2.5h13.5a1.25,1.25,0,0,1,0,2.5Z" transform="translate(-384.752 -153.001)" fill="#3f3d56"/><path d="M796.112,198.756h-.455l-.175-.145a3.805,3.805,0,0,0,.89-2.445,3.72,3.72,0,1,0-3.7,3.74,3.865,3.865,0,0,0,2.44-.89l.17.145v.46l2.87,2.875.86-.86Zm-3.44,0a2.59,2.59,0,1,1,2.58-2.6v.01a2.575,2.575,0,0,1-2.56,2.59h-.02Z" transform="translate(-496.969 -145.735)" fill="#3f3d56"/><path d="M619.252,279H595a5.5,5.5,0,0,1,0-11h24.252a5.5,5.5,0,1,1,0,11Z" transform="translate(-397.252 -183.501)" fill="#6c63ff"/><path d="M693.5,308h-101a3,3,0,1,1,0-6h101a3,3,0,0,1,0,6Z" transform="translate(-397.252 -200.501)" fill="#e6e6e6"/><path d="M629.6,332H592.5a3,3,0,1,1,0-6h37.1a3,3,0,1,1,0,6Z" transform="translate(-397.252 -212.501)" fill="#e6e6e6"/><path d="M619.252,545H595a5.5,5.5,0,0,1,0-11h24.252a5.5,5.5,0,1,1,0,11Z" transform="translate(-397.252 -316.502)" fill="#6c63ff"/><path d="M693.5,574h-101a3,3,0,1,1,0-6h101a3,3,0,0,1,0,6Z" transform="translate(-397.252 -333.503)" fill="#e6e6e6"/><path d="M629.6,598H592.5a3,3,0,1,1,0-6h37.1a3,3,0,1,1,0,6Z" transform="translate(-397.252 -345.503)" fill="#e6e6e6"/><path d="M619.252,668H595a5.5,5.5,0,1,1,0-11h24.252a5.5,5.5,0,1,1,0,11Z" transform="translate(-397.252 -378.003)" fill="#6c63ff"/><path d="M693.5,697h-101a3,3,0,1,1,0-6h101a3,3,0,0,1,0,6Z" transform="translate(-397.252 -395.003)" fill="#e6e6e6"/><path d="M629.6,721H592.5a3,3,0,1,1,0-6h37.1a3,3,0,1,1,0,6Z" transform="translate(-397.252 -407.003)" fill="#e6e6e6"/><path d="M628.748,432.5h-193a4.255,4.255,0,0,1-4.25-4.25v-52.5a4.255,4.255,0,0,1,4.25-4.25h193a4.255,4.255,0,0,1,4.25,4.25v52.5A4.255,4.255,0,0,1,628.748,432.5Z" transform="translate(-318.251 -235.251)" fill="#6c63ff"/><path d="M294.308,606.94c1.845,12.945-7.925,70.294-6.84,70.289l14.03-.075c.5-.96,6.94-31.9,8.96-36.87,2.82-6.89,5.665-13.865,6.775-21.225,1.045-6.91.53-13.95-.15-20.9a1.32,1.32,0,0,0-1.53-1.5l-18.825-.97c-3.88-.2-4.8-1.05-4.21,2.76C292.928,601.29,293.9,604.06,294.308,606.94Z" transform="translate(-246.192 -347.236)" fill="#2f2e41"/><path d="M301.827,554.07c-3.825,5.5-7.835,11.83-6.565,18.415.965,5,4.775,8.875,8.37,12.5,14.37,14.43,42.7,78.1,42.7,78.1,13.674-8.75-.326.25,13.55-9-1.23-.1-29.175-100.549-31.49-100.684C319.032,552.78,310.952,551.865,301.827,554.07Z" transform="translate(-250.012 -325.841)" fill="#2f2e41"/><path d="M319.983,443.671c-1.943-1.733-15.6-7.076-15.6-7.076a2.342,2.342,0,0,0-.754.023,1.626,1.626,0,0,0-.966,1.942c.166.781-1.2,13.612-1.546,19.447-.615,10.184,5.382,33.251,5.329,33.957a10.538,10.538,0,0,1-3.1,6.646c.467.58,30.132,1.743,32.15,2.429.407-.517-2.3-37.106-2.421-39.173C332.867,458.728,322.548,446.047,319.983,443.671Z" transform="translate(-253.039 -267.791)" fill="#e6e6e6"/><path d="M288.735,532.121a5.371,5.371,0,0,0,1.921-8.009l12.516-69.269-11.68-.154-8.692,68.5a5.4,5.4,0,0,0,5.935,8.934Z" transform="translate(-242.949 -276.848)" fill="#ffb8b8"/><path d="M294.933,454.761a2.215,2.215,0,0,1-1.38-.36c-.7-.595,4.975-9.7,6.095-9.835a28.584,28.584,0,0,1,10.93.425,13.073,13.073,0,0,1,8.44,6.54c.66,1.38-4.125,8.325-6.3,7.3C310.113,457.616,298.363,454.846,294.933,454.761Z" transform="translate(-249.248 -271.627)" fill="#e6e6e6"/><circle cx="13.119" cy="13.119" r="13.119" transform="translate(45.431 141.819)" fill="#ffb8b8"/><path d="M280.091,407.188a10.962,10.962,0,0,0,11.542-14.362c-.522-1.57-1.395-3.008-1.873-4.592a5.117,5.117,0,0,1,.569-4.726c2.075-2.484,6.074-.922,9.272-1.415,3.408-.526,6.023-3.8,6.3-7.234a10.929,10.929,0,0,0-4.187-9.026,17.707,17.707,0,0,0-9.54-3.6,25.8,25.8,0,0,0-26.477,35.247,17.8,17.8,0,0,0,7.1,8.894c3.327,1.965,7.721,2.342,11.036.359" transform="translate(-234.426 -230.558)" fill="#2f2e41"/><path d="M539.888,408.5H506.362c-2.129,0-3.861-2.467-3.861-5.5s1.732-5.5,3.861-5.5h33.527c2.129,0,3.862,2.467,3.862,5.5S542.017,408.5,539.888,408.5Z" transform="translate(-353.752 -248.252)" fill="#fff"/><path d="M630,437.5H505.5a3,3,0,1,1,0-6H630a3,3,0,0,1,0,6Z" transform="translate(-353.752 -265.252)" fill="#e6e6e6"/><path d="M566.1,461.5H505.5a3,3,0,1,1,0-6h60.6a3,3,0,0,1,0,6Z" transform="translate(-353.752 -277.252)" fill="#e6e6e6"/><rect width="394.996" height="1" transform="translate(0 349.992)" fill="#3f3d56"/></svg>