<svg id="Grupo_15865" data-name="Grupo 15865" xmlns="http://www.w3.org/2000/svg" width="90.769" height="72.539" viewBox="0 0 90.769 72.539">
  <path id="Trazado_1991" data-name="Trazado 1991" d="M438.022,372.585q-.048.462-.078.929-.064.919-.064,1.853a26.921,26.921,0,0,0,19.238,25.786V349.577A26.907,26.907,0,0,0,438.022,372.585Z" transform="translate(-422.421 -333.14)" fill="#8783c0"/>
  <circle id="Elipse_41" data-name="Elipse 41" cx="0.53" cy="0.53" r="0.53" transform="translate(1.648 22.792)" fill="#ccc"/>
  <circle id="Elipse_42" data-name="Elipse 42" cx="1.048" cy="1.048" r="1.048" transform="translate(0 43.03)" fill="#ccc"/>
  <circle id="Elipse_43" data-name="Elipse 43" cx="0.759" cy="0.759" r="0.759" transform="translate(20.016 15.883)" fill="#ccc"/>
  <circle id="Elipse_44" data-name="Elipse 44" cx="0.605" cy="0.605" r="0.605" transform="translate(2.908 58.267)" fill="#ccc"/>
  <circle id="Elipse_45" data-name="Elipse 45" cx="0.656" cy="0.656" r="0.656" transform="translate(15.085 66.642)" fill="#ccc"/>
  <path id="Trazado_1992" data-name="Trazado 1992" d="M290.622,75.14h-1.294V73.846h-.694V75.14H287.34v.694h1.294v1.294h.694V75.834h1.294Z" transform="translate(-255.825 -73.846)" fill="#ccc"/>
  <circle id="Elipse_46" data-name="Elipse 46" cx="2.26" cy="2.26" r="2.26" transform="translate(23.138 35.446)" opacity="0.1"/>
  <circle id="Elipse_47" data-name="Elipse 47" cx="2.26" cy="2.26" r="2.26" transform="translate(24.268 51.372)" opacity="0.1"/>
  <path id="Trazado_1993" data-name="Trazado 1993" d="M406.4,404.709a24.81,24.81,0,0,1-6.141-5.461c-1.3-1.757-1.76-3.345-1.375-4.718s1.605-2.489,3.627-3.316a24.809,24.809,0,0,1,8.084-1.474l-.036-.8c-7.147.32-11.569,2.23-12.451,5.378s1.9,7.077,7.842,11.066a77.373,77.373,0,0,0,18.59,8.635v-.848A76.22,76.22,0,0,1,406.4,404.709Z" transform="translate(-389.847 -365.248)" fill="#ccc"/>
  <path id="Trazado_1996" data-name="Trazado 1996" d="M588.9,370.452a26.917,26.917,0,0,0-33-26.2v52.405a26.913,26.913,0,0,0,30.285-14.4q.208-.424.4-.857a26.8,26.8,0,0,0,2.319-10.943Z" transform="translate(-518.696 -328.224)" fill="#8783c0"/>
  <circle id="Elipse_49" data-name="Elipse 49" cx="0.698" cy="0.698" r="0.698" transform="translate(64.175 11.32)" fill="#ccc"/>
  <circle id="Elipse_50" data-name="Elipse 50" cx="1.134" cy="1.134" r="1.134" transform="translate(88.501 39.861)" fill="#ccc"/>
  <circle id="Elipse_51" data-name="Elipse 51" cx="0.486" cy="0.486" r="0.486" transform="translate(80.285 22.404)" fill="#ccc"/>
  <circle id="Elipse_52" data-name="Elipse 52" cx="0.486" cy="0.486" r="0.486" transform="translate(78.583 38.21)" fill="#ccc"/>
  <path id="Trazado_1997" data-name="Trazado 1997" d="M464.067,457.27h-.813v-.812h-.436v.812h-.812v.436h.812v.812h.436v-.812h.813Z" transform="translate(-398.317 -385.98)" fill="#ccc"/>
  <path id="Trazado_1998" data-name="Trazado 1998" d="M568.148,435.607h-.607V435h-.326v.607h-.607v.326h.607v.607h.326v-.607h.607Z" transform="translate(-483.651 -368.474)" fill="#ccc"/>
  <circle id="Elipse_53" data-name="Elipse 53" cx="2.26" cy="2.26" r="2.26" transform="translate(41.447 18.904)" opacity="0.1"/>
  <circle id="Elipse_54" data-name="Elipse 54" cx="2.26" cy="2.26" r="2.26" transform="translate(41.447 38.94)" opacity="0.1"/>
  <circle id="Elipse_56" data-name="Elipse 56" cx="2.26" cy="2.26" r="2.26" transform="translate(61.072 42.125)" opacity="0.1"/>
  <path id="Trazado_1999" data-name="Trazado 1999" d="M595.05,473.351a21.047,21.047,0,0,0-5.078-5.055l-.482.645c4.485,3.353,6.574,6.558,5.883,9.024-.385,1.374-1.605,2.489-3.627,3.316a24.809,24.809,0,0,1-8.085,1.474q-1.064.048-2.183.048a86.189,86.189,0,0,1-22.455-3.466q-1.583-.444-3.128-.928v.843q1.438.447,2.911.861a86.985,86.985,0,0,0,22.677,3.5c.756,0,1.5-.016,2.215-.048,7.147-.32,11.569-2.23,12.451-5.378A5.888,5.888,0,0,0,595.05,473.351Z" transform="translate(-518.696 -429.991)" fill="#ccc"/>
  <circle id="Elipse_57" data-name="Elipse 57" cx="2.947" cy="2.947" r="2.947" transform="translate(52.875 16.699)" fill="#fff"/>
  <path id="Trazado_2001" data-name="Trazado 2001" d="M638.392,343.45a4.213,4.213,0,0,0-4.213,4.213c0,2.327,4.213,9.966,4.213,9.966s4.213-7.64,4.213-9.966a4.213,4.213,0,0,0-4.213-4.213Zm0,6.268a1.952,1.952,0,1,1,1.952-1.952,1.952,1.952,0,0,1-1.952,1.952Z" transform="translate(-582.561 -328.142)" fill="#3f3d56"/>
  <circle id="Elipse_58" data-name="Elipse 58" cx="2.947" cy="2.947" r="2.947" transform="translate(40.718 27.383)" fill="#fff"/>
  <path id="Trazado_2002" data-name="Trazado 2002" d="M572.392,401.45a4.213,4.213,0,0,0-4.213,4.213c0,2.327,4.213,9.966,4.213,9.966s4.212-7.64,4.212-9.966a4.213,4.213,0,0,0-4.213-4.213Zm0,6.268a1.952,1.952,0,1,1,1.952-1.952,1.952,1.952,0,0,1-1.952,1.952Z" transform="translate(-528.718 -375.458)" fill="#3f3d56"/>
  <circle id="Elipse_59" data-name="Elipse 59" cx="2.947" cy="2.947" r="2.947" transform="translate(40.718 8.41)" fill="#fff"/>
  <path id="Trazado_2003" data-name="Trazado 2003" d="M572.392,298.45a4.213,4.213,0,0,0-4.213,4.213c0,2.327,4.213,9.966,4.213,9.966s4.212-7.64,4.212-9.966a4.213,4.213,0,0,0-4.213-4.213Zm0,6.268a1.952,1.952,0,1,1,1.952-1.952,1.952,1.952,0,0,1-1.952,1.952Z" transform="translate(-528.718 -291.431)" fill="#ccc"/>
  <circle id="Elipse_60" data-name="Elipse 60" cx="2.947" cy="2.947" r="2.947" transform="translate(60.428 31.251)" fill="#fff"/>
  <path id="Trazado_2004" data-name="Trazado 2004" d="M679.392,422.45a4.213,4.213,0,0,0-4.213,4.213c0,2.327,4.213,9.966,4.213,9.966s4.213-7.64,4.213-9.966a4.212,4.212,0,0,0-4.213-4.213Zm0,6.268a1.952,1.952,0,1,1,1.952-1.952,1.952,1.952,0,0,1-1.952,1.952Z" transform="translate(-616.008 -392.59)" fill="#ccc"/>
  <circle id="Elipse_61" data-name="Elipse 61" cx="2.947" cy="2.947" r="2.947" transform="translate(22.482 24.62)" fill="#fff"/>
  <path id="Trazado_2005" data-name="Trazado 2005" d="M473.392,386.45a4.213,4.213,0,0,0-4.213,4.213c0,2.327,4.213,9.966,4.213,9.966s4.213-7.64,4.213-9.966a4.213,4.213,0,0,0-4.213-4.213Zm0,6.268a1.952,1.952,0,1,1,1.952-1.952,1.952,1.952,0,0,1-1.952,1.952Z" transform="translate(-447.954 -363.221)" fill="#ccc"/>
  <circle id="Elipse_62" data-name="Elipse 62" cx="2.947" cy="2.947" r="2.947" transform="translate(23.587 40.645)" fill="#fff"/>
  <path id="Trazado_2006" data-name="Trazado 2006" d="M479.392,473.45a4.213,4.213,0,0,0-4.213,4.213c0,2.327,4.213,9.966,4.213,9.966s4.213-7.64,4.213-9.966a4.213,4.213,0,0,0-4.213-4.213Zm0,6.268a1.952,1.952,0,1,1,1.952-1.952,1.952,1.952,0,0,1-1.952,1.952Z" transform="translate(-452.849 -434.195)" fill="#3f3d56"/>
</svg>
